Coordinates
version=1
nRows=17
nColumns=36
inDegrees=yes

Units are S.I. units (second, meters, Newtons, ...)
If the header above contains a line with 'inDegrees', this indicates whether rotational values are in degrees (yes) or radians (no).

endheader
time	pelvis_tilt	pelvis_list	pelvis_rotation	pelvis_tx	pelvis_ty	pelvis_tz	hip_flexion_r	hip_adduction_r	hip_rotation_r	knee_angle_r	knee_angle_r_beta	ankle_angle_r	subtalar_angle_r	mtp_angle_r	hip_flexion_l	hip_adduction_l	hip_rotation_l	knee_angle_l	knee_angle_l_beta	ankle_angle_l	subtalar_angle_l	mtp_angle_l	lumbar_extension	lumbar_bending	lumbar_rotation	arm_flex_r	arm_add_r	arm_rot_r	elbow_flex_r	pro_sup_r	arm_flex_l	arm_add_l	arm_rot_l	elbow_flex_l	pro_sup_l
      3.22916670	      3.06492067	     -1.14188879	      3.15385974	      0.07933161	      0.80990600	     -0.04631887	     46.92277846	    -12.11937650	     -1.29229204	     75.60060368	      1.31947945	     20.84829115	    -11.22561000	     -7.49999987	     50.96706832	     -9.03783572	      7.23266815	     76.34723477	      1.33251062	     17.48633393	      1.15352453	     -7.49999987	    -51.83673142	      4.51775026	     -0.06390115	     -3.54924115	    -15.99807927	    -11.22623393	     31.25443491	     69.09630835	      0.52081737	    -19.38903793	     -2.95487352	     41.97819910	     67.77535784
      3.23333330	      2.71662908	     -1.24041421	      3.08693072	      0.07493573	      0.80489481	     -0.04676078	     47.90689901	    -11.97341391	     -1.05643176	     76.30562916	      1.33178447	     21.19373066	    -11.12493116	     -7.49999987	     52.02374531	     -9.22815164	      7.24035252	     77.14412531	      1.34641899	     17.57129781	      1.11405518	     -7.49999987	    -52.86706605	      4.49063011	      0.72362688	     -1.82159873	    -16.30423223	    -10.70384620	     31.19082318	     69.16699744	      2.05531119	    -18.94487085	     -2.51317493	     43.02811559	     67.69695150
      3.23750000	      2.32865358	     -1.25443491	      3.12214695	      0.07089278	      0.80304083	     -0.04629508	     48.96640925	    -11.98532653	     -0.77983951	     76.91465997	      1.34241406	     21.10063888	    -11.04700998	     -7.49999987	     52.99981856	     -9.16543263	      7.13686354	     77.55367029	      1.35356689	     17.49551512	      0.78160243	     -7.49999987	    -54.05000431	      4.34199221	      0.93242287	      0.01505185	    -16.64032377	    -10.53379382	     32.27145356	     68.85518085	      3.28701528	    -18.71118280	     -2.36607834	     44.26552586	     67.40827451
      3.24166670	      1.84209865	     -1.37325674	      2.98730752	      0.07079502	      0.79816573	     -0.04878519	     50.14274373	    -11.91681608	     -0.54194259	     77.52808569	      1.35312036	     21.07446725	    -10.80044244	     -7.49999987	     54.10400667	     -9.28841842	      7.12676942	     78.04649175	      1.36216825	     17.44938818	      0.45145191	     -7.49999987	    -54.76615238	      4.24087829	      1.82266006	      1.65887805	    -17.27307813	     -9.50664474	     32.06318360	     69.10809380	      4.77258824	    -18.23022171	     -1.56098718	     45.60887818	     67.50935060
      3.24583330	      1.36641567	     -1.41835517	      2.93878304	      0.06467044	      0.79639767	     -0.04525615	     51.15842058	    -11.75646045	     -0.38058383	     77.88130958	      1.35928528	     21.01925054	    -10.71568540	     -7.49999987	     55.18818513	     -9.42370307	      7.17863888	     78.33713126	      1.36724087	     17.04291989	      0.14178179	     -7.49999987	    -55.79889855	      4.04418465	      1.71971744	      3.54038800	    -17.93356789	     -6.64546717	     33.30014819	     69.79829020	      6.05251395	    -18.66217990	      0.07597207	     46.90519381	     67.78097126
      3.25000000	      0.70037523	     -1.62526290	      2.79549307	      0.06564535	      0.79203866	     -0.04578089	     52.33354708	    -11.51826444	     -0.38733807	     78.33856740	      1.36726593	     21.16441236	    -10.61588130	     -7.49999987	     56.47976832	     -9.75355171	      7.26944442	     78.83708387	      1.37596669	     16.80087734	      0.00513018	     -7.49999987	    -56.40349355	      3.87225786	      1.88184625	      4.82629785	    -18.09722573	     -6.29389773	     34.36648935	     69.81023237	      7.14082278	    -18.55634895	      0.37694854	     47.85853302	     67.77898020
      3.25416670	      0.07269989	     -1.80864132	      2.62928363	      0.06832668	      0.79036175	     -0.04607254	     53.18279000	    -11.33346502	     -0.39734997	     78.51274283	      1.37030587	     21.05890563	    -10.73106390	     -7.49999987	     57.37756040	    -10.10014974	      7.21155767	     79.13626387	      1.38118836	     16.79765425	      0.07794149	     -7.49999987	    -57.01593754	      3.73621552	      2.08060429	      5.96982698	    -18.24801973	     -5.62729618	     35.31347877	     69.90793267	      8.04949160	    -18.25981674	      0.93120847	     48.69271598	     67.79607479
      3.25833330	     -0.23978122	     -1.95953672	      2.46951296	      0.06952404	      0.78928581	     -0.04617358	     53.55510692	    -11.18288386	     -0.45713421	     78.51587401	      1.37036052	     21.03883294	    -10.72978255	     -7.49999987	     57.72731958	    -10.43416775	      7.15466755	     79.20572632	      1.38240071	     17.01900772	      0.29524363	     -7.49999987	    -57.86180534	      3.68653250	      2.31192107	      7.21460103	    -18.56101605	     -4.31949045	     35.97939507	     70.45196511	      9.42645671	    -17.95665724	      1.78201336	     48.60493577	     68.03630741
      3.26250000	     -0.68100948	     -1.94590023	      2.33450098	      0.06917739	      0.78723465	     -0.04937793	     54.17663194	    -11.29604890	     -0.35778800	     78.62257527	      1.37222280	     20.96867464	    -10.84786828	     -7.49999987	     58.13444122	    -10.40724709	      7.01344055	     79.30129457	      1.38406869	     17.23908578	      0.15136189	     -7.49999987	    -58.58418214	      3.65352625	      2.20115368	      8.31037849	    -18.67236539	     -4.25939823	     36.89233515	     70.25534436	     10.41099009	    -17.44998432	      1.92795604	     49.34579618	     67.87785079
      3.26666670	     -1.05235684	     -1.88192349	      2.11482822	      0.07140011	      0.78449655	     -0.04620377	     54.65704619	    -11.28984003	     -0.18113696	     78.80795541	      1.37545830	     20.92160179	    -11.22696201	     -7.49999987	     58.36841261	    -10.68802036	      6.77061768	     79.29312107	      1.38392604	     17.97528631	      0.88149974	     -7.49999987	    -59.28707694	      3.31416930	      2.12045818	      9.32652542	    -18.78469311	     -3.42521131	     37.68359366	     70.70247411	     11.94284047	    -17.18639596	      2.17854563	     49.25571667	     68.07789178
      3.27083330	     -1.50493255	     -1.89649466	      2.04169843	      0.07162529	      0.78405893	     -0.04143762	     55.08198998	    -11.11174658	     -0.20838822	     78.93765737	      1.37772202	     21.13914935	    -11.18965975	     -7.49999987	     58.72750568	    -11.09010286	      6.70261768	     79.20804737	      1.38244122	     18.45342108	      1.49985187	     -7.49999987	    -59.92720526	      2.93682038	      2.02205897	     10.38778927	    -18.60092180	     -2.50271419	     38.14274385	     71.13676632	     13.54057070	    -17.11172901	      2.33009190	     48.87317778	     68.19137899
      3.27500000	     -1.83335066	     -1.78753356	      1.92472789	      0.06984479	      0.78228191	     -0.03948991	     55.67438902	    -10.88184176	     -0.06096405	     79.21717379	      1.38260051	     21.11365226	    -11.58363112	     -7.49999987	     58.97078664	    -11.51264844	      6.55004895	     79.05736366	      1.37981129	     18.82576305	      2.13617630	     -7.49999987	    -60.61933743	      2.42886354	      1.88666440	     11.52082672	    -18.47777968	     -1.67898728	     38.78538371	     71.56766163	     15.01337455	    -17.25699424	      2.58206492	     48.74487026	     68.29763615
      3.27916670	     -2.20262470	     -1.68763227	      1.75727293	      0.07297213	      0.77582213	     -0.04051002	     56.50569030	    -10.83433501	      0.14513548	     79.92707414	      1.39499061	     21.46295279	    -11.54723035	     -7.49999987	     59.56853148	    -11.84333523	      6.48067276	     79.58881209	      1.38908682	     19.32170742	      2.43344078	     -7.49999987	    -60.84998804	      2.01795516	      1.74396817	     12.10292617	    -18.42465486	     -1.12720443	     39.61793575	     72.07275635	     15.76330139	    -17.33238989	      2.69610646	     48.82911671	     68.50711484
      3.28333330	     -2.31300349	     -1.67528915	      1.72014570	      0.07549256	      0.77547534	     -0.03972837	     56.76257034	    -10.78666018	      0.24002277	     80.24271870	      1.40049964	     21.61021758	    -11.59835501	     -7.49999987	     59.87754937	    -12.08421757	      6.38605691	     79.96401990	      1.39563543	     19.45524542	      2.57393848	     -7.49999987	    -61.78618815	      1.79350557	      1.71358827	     13.06075119	    -18.41343548	     -0.97043205	     40.60161200	     71.84032272	     16.70401643	    -17.36078876	      2.63614894	     49.46331372	     68.26354382
      3.28750000	     -2.35983245	     -1.69561395	      1.67253764	      0.08045514	      0.77337249	     -0.03492032	     56.85724828	    -10.54108832	      0.27037197	     80.74475226	      1.40926178	     22.24915351	    -11.30027946	     -7.49999987	     59.99409790	    -12.66123176	      6.21047985	     80.35592419	      1.40247545	     20.19756426	      3.80793508	     -7.49999987	    -62.20077388	      1.52336347	      1.96753194	     13.64846737	    -18.58928488	      0.78832756	     40.62583096	     73.16505311	     17.68825709	    -17.42477332	      3.28093064	     48.66862845	     68.70146271
      3.29166670	     -2.42881116	     -1.70710881	      1.62190776	      0.08139150	      0.76943115	     -0.03035443	     57.07100595	    -10.19698577	      0.36951072	     81.52030132	      1.42279767	     22.77586995	    -11.53137431	     -7.49999987	     60.16561828	    -13.29271657	      6.19351723	     80.84759053	      1.41105665	     20.70072510	      4.73275653	     -7.49999987	    -62.69242644	      1.10989301	      2.04387481	     14.18934950	    -18.46332747	      1.15236504	     41.10118567	     73.22657399	     18.33166529	    -17.77227574	      3.22211530	     48.91563150	     68.56195798
      3.29583330	     -2.27304557	     -1.75106496	      1.65364743	      0.08646182	      0.76737675	     -0.03041273	     56.93889367	    -10.00843244	      0.37519567	     82.21301669	      1.43488783	     23.31243189	    -11.62438166	     -7.49999987	     60.08711480	    -13.81813790	      6.16520582	     81.33026218	      1.41948086	     21.26245457	      5.54704046	     -7.49999987	    -63.21192618	      0.84170515	      1.98345087	     15.04758217	    -18.48087930	      2.60212421	     40.58495491	     75.44151203	     18.83871625	    -18.04873333	      3.26428798	     48.89337808	     69.20686580
